Coordinates
version=1
nRows=28
nColumns=33
inDegrees=yes

Units are S.I. units (second, meters, Newtons, ...)
Angles are in degrees.

endheader
time	ground_thorax_rot_x	ground_thorax_rot_y	ground_thorax_rot_z	ground_thorax_tx	ground_thorax_ty	ground_thorax_tz	clav_prot_r	clav_elev_r	scapula_abduction_r	scapula_elevation_r	scapula_upward_rot_r	scapula_winging_r	shoulder_elv_r	plane_of_elev_r	axial_rot_r	elbow_flexion_r	pro_sup_r	wrist_flex_r	wrist_dev_r	clav_prot_l	clav_elev_l	scapula_abduction_l	scapula_elevation_l	scapula_upward_rot_l	scapula_winging_l	shoulder_elv_l	plane_of_elev_l	axial_rot_l	elbow_flexion_l	pro_sup_l	wrist_flex_l	wrist_dev_l	
8.1100	38.054009	6.362745	11.410692	-79.545418	782.972946	10.191234	16.982015	40.652114	44.999999	42.036922	-28.543377	-1520.469110	-2454.554040	33.960958	23.055753	2168.939470	33.690072	17.646892	13.774553	7.098034	-45.000000	-45.000000	45.000000	-13.216083	807.812841	-2263.898608	138.505084	180.000000	-717.490223	33.028255	11.071574	-18.928920	
8.1200	38.051693	6.181130	11.268356	-80.115649	783.507664	10.224673	16.769323	40.558252	44.999999	42.036642	-28.305068	-1520.547310	-2454.514538	33.945736	23.563577	2169.051711	33.231172	17.666909	13.692089	6.999096	-45.000000	-45.000000	45.000000	-12.846857	807.925307	-2263.808018	138.455732	180.000000	-717.486706	32.857320	11.063400	-19.024182	
8.1300	38.059105	6.007779	11.142575	-80.788400	784.057942	10.251347	16.560266	40.457914	44.999998	42.085192	-28.108916	-1520.596811	-2454.469213	33.909318	24.048835	2169.190448	32.748370	17.706856	13.596851	6.926236	-45.000000	-44.999999	45.000000	-12.521838	808.064711	-2263.715319	138.385146	179.999999	-717.456587	32.668954	11.076662	-19.148875	
8.1400	38.085707	5.864957	11.063088	-81.679685	784.638099	10.262473	16.432573	40.511422	44.999996	42.213340	-28.032475	-1520.639799	-2454.411641	33.877645	24.542949	2169.387476	32.283548	17.728449	13.463987	6.839603	-45.000000	-44.999999	45.000000	-12.232970	808.213861	-2263.632750	138.363249	179.999999	-717.378742	32.472450	11.053387	-19.235640	
8.1500	38.124826	5.741969	11.013691	-82.802067	785.253778	10.256095	16.363831	40.641822	44.999993	42.401365	-28.051862	-1520.676965	-2454.330861	33.850867	24.985169	2169.617212	31.819287	17.747663	13.306431	6.757235	-45.000000	-44.999998	45.000000	-11.981300	808.385688	-2263.541843	138.354963	179.999998	-717.269803	32.254644	11.018527	-19.309235	
8.1600	38.176266	5.634442	10.990485	-84.180532	785.913351	10.228614	16.348368	40.833866	44.999987	42.644703	-28.161266	-1520.713753	-2454.227049	33.833906	25.333144	2169.868166	31.358768	17.768194	13.131450	6.681307	-45.000000	-44.999996	45.000000	-11.766017	808.584672	-2263.437966	138.353693	179.999997	-717.130305	32.011199	10.976228	-19.373206	
8.1700	38.234261	5.550297	10.995444	-85.810550	786.623809	10.177572	16.414184	41.058559	44.999976	42.928912	-28.387307	-1520.753088	-2454.089045	33.844685	25.489997	2170.105902	30.888273	17.789783	12.950220	6.630158	-45.000000	-44.999992	45.000000	-11.614772	808.812469	-2263.305576	138.336097	179.999995	-716.978010	31.732073	10.932535	-19.430442	
8.1800	38.296981	5.471253	11.008032	-87.675559	787.393644	10.102004	16.488615	41.274189	44.999957	43.228472	-28.659230	-1520.805733	-2453.926561	33.868835	25.450355	2170.319351	30.430890	17.825622	12.785251	6.592066	-45.000000	-44.999986	45.000000	-11.489616	809.069589	-2263.146104	138.304399	179.999991	-716.808644	31.426869	10.896746	-19.495678	
8.1900	38.363606	5.403735	11.031222	-89.763106	788.233966	10.001654	16.582029	41.486636	44.999923	43.533973	-28.973128	-1520.877933	-2453.743504	33.906639	25.201928	2170.499306	30.005764	17.873537	12.639318	6.566865	-45.000000	-44.999976	45.000000	-11.399397	809.350104	-2262.958751	138.263499	179.999984	-716.622616	31.109164	10.862108	-19.567111	
8.2000	38.436130	5.337972	11.055758	-92.067732	789.159595	9.878805	16.639943	41.690283	44.999862	43.837654	-29.274230	-1520.974757	-2453.554714	33.935041	24.810926	2170.658394	29.642070	17.941942	12.516657	6.541303	-45.000000	-44.999957	45.000000	-11.318837	809.651143	-2262.752621	138.227662	179.999971	-716.406399	30.800953	10.828727	-19.655910	
8.2100	38.508728	5.311405	11.118938	-94.591541	790.186994	9.737338	16.760056	41.879594	44.999753	44.142364	-29.665858	-1521.089244	-2453.342654	33.973884	24.228795	2170.789621	29.317965	18.019940	12.399904	6.549602	-45.000000	-44.999922	45.000000	-11.330281	809.976834	-2262.518479	138.179426	179.999948	-716.159539	30.500077	10.788569	-19.760201	
8.2200	38.578878	5.288025	11.179319	-97.340349	791.332786	9.582924	16.834125	42.041590	44.999557	44.413537	-30.035602	-1521.242873	-2453.114998	33.999844	23.591849	2170.910422	29.049813	18.115844	12.297160	6.559337	-45.000000	-44.999861	45.000000	-11.354109	810.320317	-2262.257679	138.135482	179.999907	-715.883876	30.219923	10.745598	-19.887639	
8.2300	38.643195	5.277601	11.245150	-100.320073	792.610501	9.420940	16.916573	42.171727	44.999206	44.641540	-30.406607	-1521.444666	-2452.867555	34.025265	22.950038	2171.023943	28.809539	18.219780	12.188526	6.587403	-45.000000	-44.999750	45.000000	-11.428254	810.681873	-2261.961187	138.081790	179.999834	-715.584795	29.954065	10.696052	-20.035205	
8.2400	38.700505	5.257344	11.289774	-103.531669	794.029088	9.256119	16.948474	42.273078	44.998577	44.807926	-30.705584	-1521.708279	-2452.610386	34.036046	22.425630	2171.141076	28.583983	18.331195	12.072427	6.617953	-45.000000	-44.999553	45.000000	-11.514037	811.054018	-2261.629159	138.029566	179.999702	-715.271598	29.700148	10.643456	-20.202451	
8.2500	38.746033	5.270221	11.360588	-106.970307	795.591485	9.091171	17.053377	42.333857	44.997454	44.923484	-31.057442	-1522.027774	-2452.328202	34.066917	21.971610	2171.252463	28.320889	18.431618	11.925789	6.699219	-45.000000	-44.999199	45.000000	-11.721613	811.443180	-2261.250290	137.949479	179.999467	-714.942812	29.432923	10.585670	-20.380337	
8.2600	38.780993	5.287862	11.425552	-110.623801	797.294717	8.927498	17.127296	42.354113	44.995431	44.980902	-31.369319	-1522.402892	-2452.035380	34.089427	21.677624	2171.368199	28.026867	18.528421	11.762112	6.800511	-45.000000	-44.998565	45.000000	-11.984020	811.838951	-2260.833624	137.866615	179.999045	-714.606517	29.147061	10.531133	-20.570135	
8.2700	38.807729	5.326507	11.503469	-114.476197	799.130436	8.765346	17.218604	42.320528	44.991840	45.000000	-31.684715	-1522.820756	-2451.736454	34.112546	21.524354	2171.482499	27.698822	18.616429	11.571007	6.936336	-45.000000	-44.997429	45.000000	-12.341368	812.242182	-2260.381673	137.772868	179.998290	-714.269740	28.829164	10.480364	-20.767420	
8.2800	38.828806	5.385883	11.593461	-118.509114	801.085753	8.604814	17.282956	42.241797	44.985318	45.000000	-31.991602	-1523.257044	-2451.442039	34.113865	21.506796	2171.594649	27.353428	18.701815	11.361787	7.091498	-45.000000	-44.995395	45.000000	-12.766995	812.645985	-2259.913085	137.695521	179.996937	-713.945054	28.467599	10.431212	-20.970031	
8.2900	38.850604	5.468438	11.696674	-122.704938	803.144139	8.445935	17.360203	42.126901	44.973880	45.000000	-32.329956	-1523.701409	-2451.149715	34.114995	21.582069	2171.698723	27.012036	18.780322	11.125886	7.273265	-45.000000	-44.991750	45.000000	-13.277131	813.054999	-2259.435741	137.619862	179.994512	-713.636755	28.052741	10.383959	-21.173067	
8.3000	38.878721	5.530366	11.759270	-127.046249	805.285848	8.288952	17.335479	42.022091	44.952710	45.000000	-32.568383	-1524.147613	-2450.885818	34.079389	21.808310	2171.801408	26.729922	18.868713	10.889620	7.434159	-45.000000	-44.985223	45.000000	-13.755374	813.448562	-2258.968756	137.582328	179.990172	-713.365978	27.590268	10.325294	-21.372744	
8.3100	38.916531	5.569055	11.779176	-131.517179	807.488946	8.134095	17.231253	41.919445	44.916689	45.000000	-32.718053	-1524.599379	-2450.645345	34.025126	22.195738	2171.906521	26.548871	18.960545	10.634816	7.581817	-45.000000	-44.973528	45.000000	-14.223418	813.837649	-2258.517632	137.564831	179.982388	-713.126918	27.093270	10.264055	-21.569293	
8.3200	38.952537	5.619017	11.795960	-136.102259	809.730025	7.981549	17.074039	41.818380	44.846862	45.000000	-32.846468	-1525.032694	-2450.410310	33.957347	22.694076	2172.012912	26.494696	19.050851	10.356627	7.737470	-45.000000	-44.952588	45.000000	-14.735692	814.220024	-2258.080904	137.570589	179.968474	-712.920991	26.569632	10.199459	-21.758092	
8.3300	38.973575	5.734667	11.875316	-140.786669	811.985517	7.831440	16.953852	41.678663	44.736581	45.000000	-33.115979	-1525.433381	-2450.145114	33.912615	23.197093	2172.117871	26.580430	19.118519	10.021237	7.948951	-45.000000	-44.915050	45.000000	-15.425400	814.615320	-2257.645153	137.561842	179.943468	-712.732550	26.025409	10.156508	-21.939756	
8.3400	38.973228	5.922918	12.026585	-145.554950	814.232332	7.684020	16.859049	41.507471	44.579187	45.000000	-33.525031	-1525.786173	-2449.851919	33.878700	23.664170	2172.219567	26.834874	19.168227	9.647634	8.205565	-45.000000	-44.847891	45.000000	-16.297478	815.005647	-2257.205594	137.549546	179.898905	-712.569582	25.464390	10.123695	-22.108787	
8.3500	38.954513	6.182848	12.258937	-150.391054	816.448701	7.539787	16.815887	41.285310	44.390149	45.000000	-34.105767	-1526.095874	-2449.526403	33.865269	24.074198	2172.320240	27.288897	19.194061	9.229270	8.497229	-45.000000	-44.727360	45.000000	-17.392129	815.393270	-2256.759837	137.522089	179.818435	-712.417393	24.895987	10.105388	-22.266503	
8.3600	38.926881	6.473825	12.530753	-155.277857	818.614587	7.399537	16.789021	41.049010	44.178147	45.000000	-34.765568	-1526.369374	-2449.189322	33.860726	24.483372	2172.420734	27.986965	19.208026	8.800047	8.781273	-45.000000	-44.534663	45.000000	-18.634477	815.753380	-2256.311747	137.501830	179.676091	-712.276102	24.333855	10.074772	-22.406931	
8.3700	38.899939	6.767831	12.814952	-160.197507	820.712086	7.264269	16.771713	40.812347	43.964110	45.000000	-35.469452	-1526.621827	-2448.851880	33.863938	24.899794	2172.528092	28.982186	19.211990	8.366770	9.030629	-45.000000	-44.258794	45.000000	-19.988557	816.082390	-2255.867092	137.492577	179.449165	-712.136161	23.797596	10.020163	-22.530803	
8.3800	38.886558	7.016553	13.050916	-165.131584	822.725542	7.135028	16.718246	40.614680	43.752237	45.000000	-36.100230	-1526.868448	-2448.541385	33.860216	25.379232	2172.652190	30.347397	19.216929	7.958129	9.208626	-45.000000	-43.909094	45.000000	-21.345428	816.365238	-2255.436945	137.511066	179.128573	-712.006861	23.312235	9.915415	-22.635176	
